<svg width="1672" height="800" viewBox="0 0 1672 800" fill="none" xmlns="http://www.w3.org/2000/svg">
  <defs>
    <linearGradient id="bg" x1="0" y1="0" x2="1672" y2="800" gradientUnits="userSpaceOnUse">
      <stop stop-color="#1A0425"/>
      <stop offset="0.55" stop-color="#14001F"/>
      <stop offset="1" stop-color="#25112B"/>
    </linearGradient>
    <linearGradient id="panel" x1="0" y1="0" x2="1" y2="1">
      <stop stop-color="#6D6178" stop-opacity="0.9"/>
      <stop offset="1" stop-color="#473A4B" stop-opacity="0.95"/>
    </linearGradient>
    <linearGradient id="cardWarm" x1="0" y1="0" x2="1" y2="1">
      <stop stop-color="#7D6D76" stop-opacity="0.75"/>
      <stop offset="1" stop-color="#6B4351" stop-opacity="0.9"/>
    </linearGradient>
    <linearGradient id="cardCool" x1="0" y1="0" x2="1" y2="1">
      <stop stop-color="#352C40" stop-opacity="0.98"/>
      <stop offset="1" stop-color="#272131" stop-opacity="0.98"/>
    </linearGradient>
    <linearGradient id="video" x1="0" y1="0" x2="1" y2="1">
      <stop stop-color="#D8BCB3"/>
      <stop offset="0.28" stop-color="#B28C86"/>
      <stop offset="0.6" stop-color="#5E5E54"/>
      <stop offset="1" stop-color="#232A26"/>
    </linearGradient>
    <radialGradient id="glowTop" cx="0" cy="0" r="1" gradientUnits="userSpaceOnUse" gradientTransform="translate(1300 210) rotate(136.555) scale(542.757 562.93)">
      <stop stop-color="#9F4D5B" stop-opacity="0.26"/>
      <stop offset="1" stop-color="#9F4D5B" stop-opacity="0"/>
    </radialGradient>
    <radialGradient id="glowBottom" cx="0" cy="0" r="1" gradientUnits="userSpaceOnUse" gradientTransform="translate(360 690) rotate(103.413) scale(153.296 135.736)">
      <stop stop-color="#2E347A" stop-opacity="0.42"/>
      <stop offset="1" stop-color="#2E347A" stop-opacity="0"/>
    </radialGradient>
    <filter id="shadow" x="0" y="0" width="1672" height="800" filterUnits="userSpaceOnUse" color-interpolation-filters="sRGB">
      <feDropShadow dx="0" dy="6" stdDeviation="12" flood-color="#000000" flood-opacity="0.35"/>
    </filter>
    <style>
      .title { fill: #FFFFFF; font: 700 34px "PingFang SC", "Noto Sans SC", sans-serif; }
      .text { fill: #FFFFFF; font: 600 26px "PingFang SC", "Noto Sans SC", sans-serif; }
      .sub { fill: #D0C5D5; font: 500 18px "PingFang SC", "Noto Sans SC", sans-serif; }
      .chip { fill: #F4EEF8; font: 600 18px "PingFang SC", "Noto Sans SC", sans-serif; }
      .alpha { fill: #EEF0F5; font: 700 28px "Arial", sans-serif; }
      .hint { fill: #C9C2D1; font: 600 20px "PingFang SC", "Noto Sans SC", sans-serif; }
      .nav { fill: #FFFFFF; font: 700 28px "PingFang SC", "Noto Sans SC", sans-serif; }
      .page { fill: #FFFFFF; font: 700 24px "PingFang SC", "Noto Sans SC", sans-serif; }
      .accent { fill: #FF847C; font: 600 18px "PingFang SC", "Noto Sans SC", sans-serif; }
    </style>
  </defs>

  <rect width="1672" height="800" rx="24" fill="url(#bg)"/>
  <rect width="1672" height="800" fill="url(#glowTop)"/>
  <rect width="1672" height="800" fill="url(#glowBottom)"/>

  <g filter="url(#shadow)">
    <rect x="32" y="36" width="566" height="346" rx="28" fill="#09080C" stroke="#241E2C" stroke-width="3"/>
    <rect x="50" y="68" width="530" height="280" rx="10" fill="url(#video)"/>
    <path d="M134 109C164 129 180 163 183 198C188 254 169 278 129 301C110 251 87 214 82 170C78 136 95 111 134 109Z" fill="#D8C9C6" fill-opacity="0.92"/>
    <path d="M176 90C241 121 276 158 300 224C246 246 194 244 154 213C138 160 146 120 176 90Z" fill="#BCA59A" fill-opacity="0.65"/>
    <path d="M308 86C402 71 496 125 548 205C544 246 530 286 506 322H336C364 271 362 200 308 86Z" fill="#2C2D24" fill-opacity="0.75"/>
    <path d="M248 138L273 144L262 295L232 285L248 138Z" fill="#1A191E"/>
    <path d="M247 143C263 144 275 158 275 174V191C275 205 264 216 250 216H248C234 216 223 205 223 191V168C223 153 233 143 247 143Z" fill="#E1C2B6"/>
    <path d="M256 225L274 305C275 310 271 315 266 317L255 322C248 325 240 320 239 313L225 239L256 225Z" fill="#F4F0EB"/>
    <path d="M239 310C249 308 258 309 267 315C265 325 257 334 244 338C237 332 234 321 239 310Z" fill="#A86E49"/>
  </g>

  <rect x="32" y="402" width="566" height="68" rx="28" fill="#3C3347" fill-opacity="0.88"/>
  <circle cx="68" cy="436" r="16" stroke="#EFEAF5" stroke-width="4"/>
  <path d="M79 447L89 457" stroke="#EFEAF5" stroke-width="4" stroke-linecap="round"/>
  <text x="100" y="444" class="hint">输入歌名 / 中文 / 拼音首字母</text>
  <rect x="499" y="420" width="30" height="30" rx="7" stroke="#D9D3E2" stroke-width="3"/>
  <path d="M507 428L520 441" stroke="#D9D3E2" stroke-width="3" stroke-linecap="round"/>
  <path d="M520 428L507 441" stroke="#D9D3E2" stroke-width="3" stroke-linecap="round"/>
  <circle cx="562" cy="436" r="15" fill="#685E72"/>
  <path d="M556 430L568 442" stroke="#F6F2FA" stroke-width="3" stroke-linecap="round"/>
  <path d="M568 430L556 442" stroke="#F6F2FA" stroke-width="3" stroke-linecap="round"/>

  <g>
    <rect x="32" y="488" width="86" height="48" rx="24" fill="#2F2940"/>
    <rect x="139" y="488" width="86" height="48" rx="24" fill="#2F2940"/>
    <rect x="246" y="488" width="86" height="48" rx="24" fill="#2F2940"/>
    <rect x="353" y="488" width="86" height="48" rx="24" fill="#2F2940"/>
    <rect x="460" y="488" width="86" height="48" rx="24" fill="#2F2940"/>
    <rect x="567" y="488" width="86" height="48" rx="24" fill="#2F2940"/>
    <rect x="674" y="488" width="86" height="48" rx="24" fill="#2F2940"/>
    <rect x="32" y="551" width="86" height="48" rx="24" fill="#2F2940"/>
    <rect x="139" y="551" width="86" height="48" rx="24" fill="#2F2940"/>
    <rect x="246" y="551" width="86" height="48" rx="24" fill="#2F2940"/>
    <rect x="353" y="551" width="86" height="48" rx="24" fill="#2F2940"/>
    <rect x="460" y="551" width="86" height="48" rx="24" fill="#2F2940"/>
    <rect x="567" y="551" width="86" height="48" rx="24" fill="#2F2940"/>
    <rect x="674" y="551" width="86" height="48" rx="24" fill="#2F2940"/>
    <rect x="32" y="614" width="86" height="48" rx="24" fill="#2F2940"/>
    <rect x="139" y="614" width="86" height="48" rx="24" fill="#2F2940"/>
    <rect x="246" y="614" width="86" height="48" rx="24" fill="#2F2940"/>
    <rect x="353" y="614" width="86" height="48" rx="24" fill="#2F2940"/>
    <rect x="460" y="614" width="86" height="48" rx="24" fill="#2F2940"/>
    <rect x="567" y="614" width="86" height="48" rx="24" fill="#2F2940"/>
    <rect x="674" y="614" width="86" height="48" rx="24" fill="#2F2940"/>
    <rect x="32" y="677" width="86" height="48" rx="24" fill="#2F2940"/>
    <rect x="139" y="677" width="86" height="48" rx="24" fill="#2F2940"/>
    <rect x="246" y="677" width="86" height="48" rx="24" fill="#2F2940"/>
    <rect x="353" y="677" width="86" height="48" rx="24" fill="#2F2940"/>
    <rect x="460" y="677" width="86" height="48" rx="24" fill="#2F2940"/>
    <rect x="567" y="677" width="86" height="48" rx="24" fill="#2F2940"/>
  </g>

  <text x="60" y="521" class="alpha">A</text>
  <text x="167" y="521" class="alpha">B</text>
  <text x="274" y="521" class="alpha">C</text>
  <text x="381" y="521" class="alpha">D</text>
  <text x="488" y="521" class="alpha">E</text>
  <text x="595" y="521" class="alpha">F</text>
  <text x="702" y="521" class="alpha">G</text>
  <text x="60" y="584" class="alpha">H</text>
  <text x="167" y="584" class="alpha">I</text>
  <text x="274" y="584" class="alpha">J</text>
  <text x="381" y="584" class="alpha">K</text>
  <text x="488" y="584" class="alpha">L</text>
  <text x="595" y="584" class="alpha">M</text>
  <text x="702" y="584" class="alpha">N</text>
  <text x="60" y="647" class="alpha">O</text>
  <text x="167" y="647" class="alpha">P</text>
  <text x="274" y="647" class="alpha">Q</text>
  <text x="381" y="647" class="alpha">R</text>
  <text x="488" y="647" class="alpha">S</text>
  <text x="595" y="647" class="alpha">T</text>
  <text x="702" y="647" class="alpha">U</text>
  <text x="60" y="710" class="alpha">V</text>
  <text x="167" y="710" class="alpha">W</text>
  <text x="274" y="710" class="alpha">X</text>
  <text x="381" y="710" class="alpha">Y</text>
  <text x="488" y="710" class="alpha">Z</text>
  <text x="662" y="710" class="alpha" font-size="22">123</text>

  <g>
    <rect x="878" y="34" width="110" height="48" rx="24" fill="#3C3146" fill-opacity="0.92"/>
    <rect x="996" y="34" width="116" height="48" rx="24" fill="#3C3146" fill-opacity="0.92"/>
    <rect x="1120" y="34" width="116" height="48" rx="24" fill="#3C3146" fill-opacity="0.92"/>
    <rect x="1244" y="34" width="116" height="48" rx="24" fill="#3C3146" fill-opacity="0.92"/>
    <rect x="1368" y="34" width="116" height="48" rx="24" fill="#3C3146" fill-opacity="0.92"/>
    <rect x="1492" y="34" width="116" height="48" rx="24" fill="#3C3146" fill-opacity="0.92"/>
    <text x="897" y="65" class="chip">已点1</text>
    <text x="1019" y="65" class="chip">伴唱</text>
    <text x="1145" y="65" class="chip">切歌</text>
    <text x="1269" y="65" class="chip">播放</text>
    <text x="1392" y="65" class="chip">重唱</text>
    <text x="1514" y="65" class="chip">设置</text>
  </g>

  <g>
    <rect x="632" y="104" width="126" height="54" rx="24" fill="#403447" fill-opacity="0.96"/>
    <path d="M671 130L656 145L671 160" stroke="#F3EEF7" stroke-width="4" stroke-linecap="round" stroke-linejoin="round"/>
    <text x="686" y="140" class="nav">返回</text>
    <text x="782" y="141" class="title">主页 / 歌名</text>
  </g>

  <g>
    <rect x="631" y="176" width="82" height="40" rx="20" fill="#2E2236"/>
    <rect x="731" y="176" width="82" height="40" rx="20" fill="#2E2236"/>
    <rect x="831" y="176" width="82" height="40" rx="20" fill="#2E2236"/>
    <rect x="931" y="176" width="102" height="40" rx="20" fill="#2E2236"/>
    <rect x="1051" y="176" width="82" height="40" rx="20" fill="#443847"/>
    <rect x="1151" y="176" width="82" height="40" rx="20" fill="#2E2236"/>
    <rect x="1251" y="176" width="82" height="40" rx="20" fill="#2E2236"/>
    <rect x="1351" y="176" width="82" height="40" rx="20" fill="#2E2236"/>
    <text x="658" y="202" class="accent">全部</text>
    <text x="758" y="202" class="chip">国语</text>
    <text x="858" y="202" class="chip">粤语</text>
    <text x="958" y="202" class="chip">闽南语</text>
    <text x="1076" y="202" class="chip">英语</text>
    <text x="1179" y="202" class="chip">日语</text>
    <text x="1279" y="202" class="chip">韩语</text>
    <text x="1378" y="202" class="chip">其它</text>
  </g>

  <g>
    <rect x="631" y="240" width="482" height="92" rx="20" fill="url(#panel)" stroke="#7A6C86" stroke-opacity="0.45" stroke-width="2"/>
    <text x="661" y="286" class="text">不为谁而作的歌</text>
    <text x="661" y="319" class="sub">林俊杰 · 其它</text>
    <circle cx="979" cy="286" r="30" fill="#685C72" fill-opacity="0.58"/>
    <circle cx="1057" cy="286" r="30" stroke="#E9DFEF" stroke-opacity="0.86" stroke-width="4"/>
    <path d="M979 270V295" stroke="#F4EEF8" stroke-width="5" stroke-linecap="round"/>
    <path d="M968 287L979 298L990 287" stroke="#F4EEF8" stroke-width="5" stroke-linecap="round" stroke-linejoin="round"/>

    <rect x="1125" y="240" width="476" height="92" rx="20" fill="url(#cardWarm)" stroke="#7A6C86" stroke-opacity="0.45" stroke-width="2"/>
    <text x="1155" y="286" class="text">伯虎说</text>
    <text x="1155" y="319" class="sub">伯爵&amp;唐伯虎 · 其它 · 当前播放</text>
    <circle cx="1549" cy="286" r="30" stroke="#E9DFEF" stroke-opacity="0.86" stroke-width="4"/>
  </g>

  <g>
    <rect x="631" y="350" width="482" height="92" rx="20" fill="url(#cardCool)" stroke="#62576E" stroke-opacity="0.45" stroke-width="2"/>
    <text x="661" y="396" class="text">你在不在(MTV)</text>
    <text x="661" y="429" class="sub">郭采洁 · 国语</text>
    <circle cx="979" cy="396" r="30" fill="#685C72" fill-opacity="0.58"/>
    <circle cx="1057" cy="396" r="30" stroke="#E9DFEF" stroke-opacity="0.86" stroke-width="4"/>
    <path d="M979 380V405" stroke="#F4EEF8" stroke-width="5" stroke-linecap="round"/>
    <path d="M968 397L979 408L990 397" stroke="#F4EEF8" stroke-width="5" stroke-linecap="round" stroke-linejoin="round"/>

    <rect x="1125" y="350" width="476" height="92" rx="20" fill="url(#cardWarm)" stroke="#62576E" stroke-opacity="0.45" stroke-width="2"/>
    <text x="1155" y="396" class="text">你的答案</text>
    <text x="1155" y="429" class="sub">阿冗 · 其它</text>
    <circle cx="1549" cy="396" r="30" stroke="#E9DFEF" stroke-opacity="0.86" stroke-width="4"/>
  </g>

  <g>
    <rect x="631" y="460" width="482" height="92" rx="20" fill="url(#cardCool)" stroke="#62576E" stroke-opacity="0.45" stroke-width="2"/>
    <text x="661" y="506" class="text">喜欢你</text>
    <text x="661" y="539" class="sub">邓紫棋 · 粤语</text>
    <circle cx="979" cy="506" r="30" fill="#685C72" fill-opacity="0.58"/>
    <circle cx="1057" cy="506" r="30" stroke="#E9DFEF" stroke-opacity="0.86" stroke-width="4"/>
    <path d="M979 490V515" stroke="#F4EEF8" stroke-width="5" stroke-linecap="round"/>
    <path d="M968 507L979 518L990 507" stroke="#F4EEF8" stroke-width="5" stroke-linecap="round" stroke-linejoin="round"/>

    <rect x="1125" y="460" width="476" height="92" rx="20" fill="url(#cardCool)" stroke="#62576E" stroke-opacity="0.45" stroke-width="2"/>
    <text x="1155" y="506" class="text">天后</text>
    <text x="1155" y="539" class="sub">陈势安 · 其它</text>
    <circle cx="1470" cy="506" r="30" fill="#685C72" fill-opacity="0.58"/>
    <circle cx="1549" cy="506" r="30" stroke="#E9DFEF" stroke-opacity="0.86" stroke-width="4"/>
    <path d="M1470 490V515" stroke="#F4EEF8" stroke-width="5" stroke-linecap="round"/>
    <path d="M1459 507L1470 518L1481 507" stroke="#F4EEF8" stroke-width="5" stroke-linecap="round" stroke-linejoin="round"/>
  </g>

  <g>
    <rect x="631" y="570" width="482" height="92" rx="20" fill="url(#cardCool)" stroke="#62576E" stroke-opacity="0.45" stroke-width="2"/>
    <text x="661" y="616" class="text">沧海一声笑</text>
    <text x="661" y="649" class="sub">任贤齐 · 其它</text>
    <circle cx="1057" cy="616" r="30" fill="#F970A0" fill-opacity="0.96"/>
    <path d="M1043 612C1043 605 1048 600 1054 600C1057 600 1060 602 1062 605C1064 602 1068 600 1071 600C1077 600 1082 605 1082 612C1082 622 1072 628 1062 636C1052 628 1043 622 1043 612Z" fill="#FFFFFF"/>

    <rect x="1125" y="570" width="476" height="92" rx="20" fill="url(#cardCool)" stroke="#62576E" stroke-opacity="0.45" stroke-width="2"/>
    <text x="1155" y="616" class="text">演员</text>
    <text x="1155" y="649" class="sub">薛之谦 · 国语</text>
    <circle cx="1470" cy="616" r="30" fill="#685C72" fill-opacity="0.58"/>
    <circle cx="1549" cy="616" r="30" stroke="#E9DFEF" stroke-opacity="0.86" stroke-width="4"/>
    <path d="M1470 600V625" stroke="#F4EEF8" stroke-width="5" stroke-linecap="round"/>
    <path d="M1459 617L1470 628L1481 617" stroke="#F4EEF8" stroke-width="5" stroke-linecap="round" stroke-linejoin="round"/>
  </g>

  <g>
    <rect x="1317" y="689" width="90" height="46" rx="20" fill="#2D2233"/>
    <rect x="1423" y="689" width="78" height="46" rx="20" fill="#241A2D"/>
    <rect x="1517" y="689" width="95" height="46" rx="20" fill="#2D2233"/>
    <text x="1342" y="719" class="page">上一页</text>
    <text x="1445" y="719" class="page">1/2</text>
    <text x="1546" y="719" class="page">下一页</text>
  </g>

  <rect x="683" y="747" width="399" height="8" rx="4" fill="#E6E0EE" fill-opacity="0.82"/>
</svg>
